
<svg width="91px" height="92px" viewBox="0 0 91 92" version="1.1" xmlns="http://www.w3.org/2000/svg" xmlns:xlink="http://www.w3.org/1999/xlink">
        <g id="close" fill="#000000" fill-rule="nonzero">
            <path d="M54.1,46 L88.7,11.4 C91.1,9 91.1,5.1 88.7,2.7 C86.3,0.3 82.4,0.3 80,2.7 L45.4,37.3 L10.8,2.8 C8.4,0.4 4.5,0.4 2.1,2.8 C-0.3,5.2 -0.3,9.1 2.1,11.5 L36.7,46 L2.2,80.6 C-0.2,83 -0.2,86.9 2.2,89.3 C4.6,91.7 8.5,91.7 10.9,89.3 L45.5,54.7 L80.1,89.3 C82.5,91.7 86.4,91.7 88.8,89.3 C91.2,86.9 91.2,83 88.8,80.6 L54.1,46 Z" id="Shape"></path>
        </g>
</svg>