<?xml version="1.0" encoding="UTF-8"?>
<svg width="68px" height="68px" viewBox="0 0 68 68" version="1.1" xmlns="http://www.w3.org/2000/svg" xmlns:xlink="http://www.w3.org/1999/xlink">
    <!-- Generator: Sketch 50.2 (55047) - http://www.bohemiancoding.com/sketch -->
    <title>i</title>
    <desc>Created with Sketch.</desc>
    <defs></defs>
    <g id="Page-1" stroke="none" stroke-width="1" fill="none" fill-rule="evenodd">
        <g id="i" fill="#000000" fill-rule="nonzero">
            <path d="M34,0.917 C15.758,0.917 0.916,15.758 0.916,34 C0.916,52.242 15.758,67.083 34,67.083 C52.242,67.083 67.084,52.242 67.084,34 C67.084,15.758 52.242,0.917 34,0.917 Z M34,63.083 C17.963,63.083 4.916,50.037 4.916,34 C4.916,17.963 17.963,4.917 34,4.917 C50.037,4.917 63.084,17.963 63.084,34 C63.084,50.037 50.037,63.083 34,63.083 Z M32,23.25 L36,23.25 L36,17.083 L32,17.083 L32,23.25 Z M32,50.917 L36,50.917 L36,27.5 L32,27.5 L32,50.917 Z" id="Shape"></path>
        </g>
    </g>
</svg>